<?xml version="1.0" encoding="utf-8" standalone="no"?>
<!DOCTYPE svg PUBLIC "-//W3C//DTD SVG 1.1//EN"
  "http://www.w3.org/Graphics/SVG/1.1/DTD/svg11.dtd">
<svg xmlns:xlink="http://www.w3.org/1999/xlink" width="692.963595pt" height="335.929375pt" viewBox="0 0 692.963595 335.929375" xmlns="http://www.w3.org/2000/svg" version="1.1">
 <metadata>
  <rdf:RDF xmlns:dc="http://purl.org/dc/elements/1.1/" xmlns:cc="http://creativecommons.org/ns#" xmlns:rdf="http://www.w3.org/1999/02/22-rdf-syntax-ns#">
   <cc:Work>
    <dc:type rdf:resource="http://purl.org/dc/dcmitype/StillImage"/>
    <dc:date>2025-07-30T14:17:14.682496</dc:date>
    <dc:format>image/svg+xml</dc:format>
    <dc:creator>
     <cc:Agent>
      <dc:title>Matplotlib v3.7.5, https://matplotlib.org/</dc:title>
     </cc:Agent>
    </dc:creator>
   </cc:Work>
  </rdf:RDF>
 </metadata>
 <defs>
  <style type="text/css">*{stroke-linejoin: round; stroke-linecap: butt}</style>
 </defs>
 <g id="figure_1">
  <g id="patch_1">
   <path d="M 0 335.929375 
L 692.963595 335.929375 
L 692.963595 0 
L 0 0 
z
" style="fill: #ffffff"/>
  </g>
  <g id="axes_1">
   <g id="patch_2">
    <path d="M 32.2 277.72 
L 331.303843 277.72 
L 331.303843 7.2 
L 32.2 7.2 
z
" style="fill: #ffffff"/>
   </g>
   <g id="PolyCollection_1">
    <defs>
     <path id="m8f7471f405" d="M 107.468574 -70.505739 
L 106.483348 -70.505739 
L 106.271786 -72.989853 
L 105.992492 -75.473966 
L 105.633731 -77.95808 
L 105.185466 -80.442194 
L 104.640845 -82.926308 
L 103.997704 -85.410422 
L 103.259875 -87.894536 
L 102.438011 -90.37865 
L 101.549728 -92.862763 
L 100.618866 -95.346877 
L 99.673844 -97.830991 
L 98.745203 -100.315105 
L 97.862572 -102.799219 
L 97.051428 -105.283333 
L 96.330057 -107.767447 
L 95.707122 -110.25156 
L 95.180166 -112.735674 
L 94.735222 -115.219788 
L 94.34758 -117.703902 
L 93.983573 -120.188016 
L 93.603144 -122.67213 
L 93.162888 -125.156244 
L 92.619217 -127.640358 
L 91.931344 -130.124471 
L 91.063818 -132.608585 
L 89.988452 -135.092699 
L 88.685537 -137.576813 
L 87.144388 -140.060927 
L 85.363289 -142.545041 
L 83.349028 -145.029155 
L 81.11619 -147.513268 
L 78.68641 -149.997382 
L 76.087714 -152.481496 
L 73.354004 -154.96561 
L 70.524658 -157.449724 
L 67.644132 -159.933838 
L 64.761425 -162.417952 
L 61.929245 -164.902066 
L 59.202788 -167.386179 
L 56.638099 -169.870293 
L 54.29011 -172.354407 
L 52.210458 -174.838521 
L 50.445298 -177.322635 
L 49.033261 -179.806749 
L 48.003698 -182.290863 
L 47.375309 -184.774976 
L 47.155192 -187.25909 
L 47.338357 -189.743204 
L 47.90774 -192.227318 
L 48.83478 -194.711432 
L 50.080643 -197.195546 
L 51.598137 -199.67966 
L 53.334334 -202.163774 
L 55.233772 -204.647887 
L 57.242028 -207.132001 
L 59.309321 -209.616115 
L 61.393723 -212.100229 
L 63.463582 -214.584343 
L 65.498808 -217.068457 
L 67.490843 -219.552571 
L 69.441286 -222.036684 
L 71.359383 -224.520798 
L 73.258725 -227.004912 
L 75.153634 -229.489026 
L 77.055728 -231.97314 
L 78.971147 -234.457254 
L 80.898749 -236.941368 
L 82.829481 -239.425482 
L 84.746889 -241.909595 
L 86.62863 -244.393709 
L 88.448664 -246.877823 
L 90.179814 -249.361937 
L 91.79635 -251.846051 
L 93.276316 -254.330165 
L 94.603427 -256.814279 
L 95.76841 -259.298392 
L 96.769756 -261.782506 
L 97.613881 -264.26662 
L 98.31469 -266.750734 
L 98.892573 -269.234848 
L 99.372851 -271.718962 
L 99.783759 -274.203076 
L 100.154091 -276.68719 
L 100.510724 -279.171303 
L 100.876291 -281.655417 
L 101.26729 -284.139531 
L 101.692905 -286.623645 
L 102.154699 -289.107759 
L 102.647223 -291.591873 
L 103.15942 -294.075987 
L 103.676604 -296.5601 
L 104.182669 -299.044214 
L 104.662209 -301.528328 
L 105.10224 -304.012442 
L 105.493364 -306.496556 
L 105.830265 -308.98067 
L 106.111622 -311.464784 
L 106.339546 -313.948897 
L 106.518727 -316.433011 
L 107.433194 -316.433011 
L 107.433194 -316.433011 
L 107.612375 -313.948897 
L 107.840299 -311.464784 
L 108.121657 -308.98067 
L 108.458558 -306.496556 
L 108.849681 -304.012442 
L 109.289713 -301.528328 
L 109.769252 -299.044214 
L 110.275318 -296.5601 
L 110.792502 -294.075987 
L 111.304699 -291.591873 
L 111.797222 -289.107759 
L 112.259017 -286.623645 
L 112.684632 -284.139531 
L 113.07563 -281.655417 
L 113.441197 -279.171303 
L 113.797831 -276.68719 
L 114.168163 -274.203076 
L 114.579071 -271.718962 
L 115.059348 -269.234848 
L 115.637231 -266.750734 
L 116.338041 -264.26662 
L 117.182166 -261.782506 
L 118.183512 -259.298392 
L 119.348494 -256.814279 
L 120.675605 -254.330165 
L 122.155572 -251.846051 
L 123.772107 -249.361937 
L 125.503257 -246.877823 
L 127.323291 -244.393709 
L 129.205032 -241.909595 
L 131.122441 -239.425482 
L 133.053172 -236.941368 
L 134.980775 -234.457254 
L 136.896193 -231.97314 
L 138.798288 -229.489026 
L 140.693196 -227.004912 
L 142.592539 -224.520798 
L 144.510636 -222.036684 
L 146.461079 -219.552571 
L 148.453113 -217.068457 
L 150.48834 -214.584343 
L 152.558198 -212.100229 
L 154.6426 -209.616115 
L 156.709894 -207.132001 
L 158.71815 -204.647887 
L 160.617587 -202.163774 
L 162.353784 -199.67966 
L 163.871279 -197.195546 
L 165.117141 -194.711432 
L 166.044181 -192.227318 
L 166.613564 -189.743204 
L 166.796729 -187.25909 
L 166.576613 -184.774976 
L 165.948223 -182.290863 
L 164.918661 -179.806749 
L 163.506623 -177.322635 
L 161.741464 -174.838521 
L 159.661811 -172.354407 
L 157.313822 -169.870293 
L 154.749134 -167.386179 
L 152.022676 -164.902066 
L 149.190496 -162.417952 
L 146.30779 -159.933838 
L 143.427264 -157.449724 
L 140.597917 -154.96561 
L 137.864207 -152.481496 
L 135.265512 -149.997382 
L 132.835732 -147.513268 
L 130.602893 -145.029155 
L 128.588632 -142.545041 
L 126.807534 -140.060927 
L 125.266384 -137.576813 
L 123.96347 -135.092699 
L 122.888103 -132.608585 
L 122.020578 -130.124471 
L 121.332704 -127.640358 
L 120.789034 -125.156244 
L 120.348777 -122.67213 
L 119.968348 -120.188016 
L 119.604341 -117.703902 
L 119.2167 -115.219788 
L 118.771756 -112.735674 
L 118.244799 -110.25156 
L 117.621865 -107.767447 
L 116.900493 -105.283333 
L 116.08935 -102.799219 
L 115.206719 -100.315105 
L 114.278078 -97.830991 
L 113.333056 -95.346877 
L 112.402193 -92.862763 
L 111.51391 -90.37865 
L 110.692047 -87.894536 
L 109.954217 -85.410422 
L 109.311077 -82.926308 
L 108.766455 -80.442194 
L 108.318191 -77.95808 
L 107.95943 -75.473966 
L 107.680136 -72.989853 
L 107.468574 -70.505739 
z
" style="stroke: #3f3f3f; stroke-opacity: 0.7; stroke-width: 1.25"/>
    </defs>
    <g clip-path="url(#p453d9e2911)">
     <use xlink:href="#m8f7471f405" x="0" y="335.929375" style="fill: #3274a1; fill-opacity: 0.7; stroke: #3f3f3f; stroke-opacity: 0.7; stroke-width: 1.25"/>
    </g>
   </g>
   <g id="PolyCollection_2">
    <defs>
     <path id="ma85a39c315" d="M 256.799854 -85.228693 
L 256.25591 -85.228693 
L 256.131618 -86.630051 
L 255.961615 -88.031409 
L 255.733775 -89.432766 
L 255.434454 -90.834124 
L 255.04887 -92.235481 
L 254.561706 -93.636839 
L 253.957945 -95.038197 
L 253.223897 -96.439554 
L 252.348385 -97.840912 
L 251.323937 -99.242269 
L 250.147851 -100.643627 
L 248.822924 -102.044985 
L 247.357642 -103.446342 
L 245.765684 -104.8477 
L 244.064629 -106.249057 
L 242.273914 -107.650415 
L 240.412212 -109.051773 
L 238.494543 -110.45313 
L 236.529573 -111.854488 
L 234.517616 -113.255845 
L 232.449865 -114.657203 
L 230.309274 -116.058561 
L 228.073325 -117.459918 
L 225.718611 -118.861276 
L 223.226802 -120.262633 
L 220.591192 -121.663991 
L 217.822721 -123.065349 
L 214.954223 -124.466706 
L 212.041763 -125.868064 
L 209.162272 -127.269421 
L 206.407336 -128.670779 
L 203.873713 -130.072137 
L 201.651893 -131.473494 
L 199.814544 -132.874852 
L 198.406826 -134.276209 
L 197.440357 -135.677567 
L 196.891913 -137.078925 
L 196.707114 -138.480282 
L 196.808383 -139.88164 
L 197.10571 -141.282997 
L 197.508313 -142.684355 
L 197.935289 -144.085713 
L 198.323681 -145.48707 
L 198.633046 -146.888428 
L 198.846307 -148.289785 
L 198.967355 -149.691143 
L 199.016316 -151.092501 
L 199.023607 -152.493858 
L 199.023882 -153.895216 
L 199.050755 -155.296574 
L 199.132871 -156.697931 
L 199.291584 -158.099289 
L 199.540213 -159.500646 
L 199.884656 -160.902004 
L 200.325003 -162.303362 
L 200.857717 -163.704719 
L 201.477974 -165.106077 
L 202.181756 -166.507434 
L 202.967389 -167.908792 
L 203.836348 -169.31015 
L 204.793247 -170.711507 
L 205.845152 -172.112865 
L 207.0004 -173.514222 
L 208.267244 -174.91558 
L 209.652591 -176.316938 
L 211.16106 -177.718295 
L 212.794432 -179.119653 
L 214.551448 -180.52101 
L 216.42781 -181.922368 
L 218.416196 -183.323726 
L 220.506146 -184.725083 
L 222.683808 -186.126441 
L 224.93161 -187.527798 
L 227.228076 -188.929156 
L 229.54799 -190.330514 
L 231.863111 -191.731871 
L 234.143472 -193.133229 
L 236.359193 -194.534586 
L 238.482546 -195.935944 
L 240.48996 -197.337302 
L 242.363598 -198.738659 
L 244.092258 -200.140017 
L 245.671454 -201.541374 
L 247.102687 -202.942732 
L 248.392118 -204.34409 
L 249.548892 -205.745447 
L 250.583456 -207.146805 
L 251.50614 -208.548162 
L 252.326192 -209.94952 
L 253.051351 -211.350878 
L 253.6879 -212.752235 
L 254.241076 -214.153593 
L 254.715651 -215.55495 
L 255.116503 -216.956308 
L 255.449048 -218.357666 
L 255.719444 -219.759023 
L 255.93457 -221.160381 
L 256.101804 -222.561738 
L 256.228696 -223.963096 
L 256.827069 -223.963096 
L 256.827069 -223.963096 
L 256.95396 -222.561738 
L 257.121195 -221.160381 
L 257.33632 -219.759023 
L 257.606717 -218.357666 
L 257.939261 -216.956308 
L 258.340113 -215.55495 
L 258.814688 -214.153593 
L 259.367865 -212.752235 
L 260.004414 -211.350878 
L 260.729572 -209.94952 
L 261.549624 -208.548162 
L 262.472308 -207.146805 
L 263.506873 -205.745447 
L 264.663647 -204.34409 
L 265.953077 -202.942732 
L 267.384311 -201.541374 
L 268.963506 -200.140017 
L 270.692167 -198.738659 
L 272.565804 -197.337302 
L 274.573218 -195.935944 
L 276.696572 -194.534586 
L 278.912293 -193.133229 
L 281.192654 -191.731871 
L 283.507774 -190.330514 
L 285.827688 -188.929156 
L 288.124154 -187.527798 
L 290.371956 -186.126441 
L 292.549618 -184.725083 
L 294.639569 -183.323726 
L 296.627954 -181.922368 
L 298.504317 -180.52101 
L 300.261333 -179.119653 
L 301.894704 -177.718295 
L 303.403174 -176.316938 
L 304.788521 -174.91558 
L 306.055364 -173.514222 
L 307.210612 -172.112865 
L 308.262517 -170.711507 
L 309.219417 -169.31015 
L 310.088375 -167.908792 
L 310.874009 -166.507434 
L 311.57779 -165.106077 
L 312.198047 -163.704719 
L 312.730762 -162.303362 
L 313.171108 -160.902004 
L 313.515552 -159.500646 
L 313.76418 -158.099289 
L 313.922893 -156.697931 
L 314.00501 -155.296574 
L 314.031883 -153.895216 
L 314.032158 -152.493858 
L 314.039448 -151.092501 
L 314.088409 -149.691143 
L 314.209458 -148.289785 
L 314.422718 -146.888428 
L 314.732083 -145.48707 
L 315.120476 -144.085713 
L 315.547451 -142.684355 
L 315.950055 -141.282997 
L 316.247381 -139.88164 
L 316.348651 -138.480282 
L 316.163852 -137.078925 
L 315.615407 -135.677567 
L 314.648938 -134.276209 
L 313.241221 -132.874852 
L 311.403871 -131.473494 
L 309.182052 -130.072137 
L 306.648428 -128.670779 
L 303.893492 -127.269421 
L 301.014001 -125.868064 
L 298.101541 -124.466706 
L 295.233044 -123.065349 
L 292.464573 -121.663991 
L 289.828963 -120.262633 
L 287.337154 -118.861276 
L 284.982439 -117.459918 
L 282.74649 -116.058561 
L 280.605899 -114.657203 
L 278.538148 -113.255845 
L 276.526191 -111.854488 
L 274.561221 -110.45313 
L 272.643552 -109.051773 
L 270.78185 -107.650415 
L 268.991136 -106.249057 
L 267.29008 -104.8477 
L 265.698122 -103.446342 
L 264.232841 -102.044985 
L 262.907913 -100.643627 
L 261.731828 -99.242269 
L 260.70738 -97.840912 
L 259.831867 -96.439554 
L 259.09782 -95.038197 
L 258.494058 -93.636839 
L 258.006895 -92.235481 
L 257.621311 -90.834124 
L 257.321989 -89.432766 
L 257.09415 -88.031409 
L 256.924147 -86.630051 
L 256.799854 -85.228693 
z
" style="stroke: #3f3f3f; stroke-opacity: 0.7; stroke-width: 1.25"/>
    </defs>
    <g clip-path="url(#p453d9e2911)">
     <use xlink:href="#ma85a39c315" x="0" y="335.929375" style="fill: #e1812c; fill-opacity: 0.7; stroke: #3f3f3f; stroke-opacity: 0.7; stroke-width: 1.25"/>
    </g>
   </g>
   <g id="matplotlib.axis_1">
    <g id="xtick_1">
     <g id="line2d_1">
      <path d="M 106.975961 277.72 
L 106.975961 7.2 
" clip-path="url(#p453d9e2911)" style="fill: none; stroke: #b0b0b0; stroke-width: 0.8; stroke-linecap: square"/>
     </g>
     <g id="line2d_2">
      <defs>
       <path id="md6f59bc3ec" d="M 0 0 
L 0 3.5 
" style="stroke: #000000; stroke-width: 0.8"/>
      </defs>
      <g>
       <use xlink:href="#md6f59bc3ec" x="106.975961" y="277.72" style="stroke: #000000; stroke-width: 0.8"/>
      </g>
     </g>
     <g id="text_1">
      <!-- PrivacyQA-K -->
      <g transform="translate(40.325336 301.385) scale(0.24 -0.24)">
       <defs>
        <path id="TimesNewRomanPSMT-50" d="M 1313 1984 
L 1313 750 
Q 1313 350 1400 253 
Q 1519 116 1759 116 
L 1922 116 
L 1922 0 
L 106 0 
L 106 116 
L 266 116 
Q 534 116 650 291 
Q 713 388 713 750 
L 713 3488 
Q 713 3888 628 3984 
Q 506 4122 266 4122 
L 106 4122 
L 106 4238 
L 1659 4238 
Q 2228 4238 2556 4120 
Q 2884 4003 3109 3725 
Q 3334 3447 3334 3066 
Q 3334 2547 2992 2222 
Q 2650 1897 2025 1897 
Q 1872 1897 1694 1919 
Q 1516 1941 1313 1984 
z
M 1313 2163 
Q 1478 2131 1606 2115 
Q 1734 2100 1825 2100 
Q 2150 2100 2386 2351 
Q 2622 2603 2622 3003 
Q 2622 3278 2509 3514 
Q 2397 3750 2190 3867 
Q 1984 3984 1722 3984 
Q 1563 3984 1313 3925 
L 1313 2163 
z
" transform="scale(0.015625)"/>
        <path id="TimesNewRomanPSMT-72" d="M 1038 2947 
L 1038 2303 
Q 1397 2947 1775 2947 
Q 1947 2947 2059 2842 
Q 2172 2738 2172 2600 
Q 2172 2478 2090 2393 
Q 2009 2309 1897 2309 
Q 1788 2309 1652 2417 
Q 1516 2525 1450 2525 
Q 1394 2525 1328 2463 
Q 1188 2334 1038 2041 
L 1038 669 
Q 1038 431 1097 309 
Q 1138 225 1241 169 
Q 1344 113 1538 113 
L 1538 0 
L 72 0 
L 72 113 
Q 291 113 397 181 
Q 475 231 506 341 
Q 522 394 522 644 
L 522 1753 
Q 522 2253 501 2348 
Q 481 2444 426 2487 
Q 372 2531 291 2531 
Q 194 2531 72 2484 
L 41 2597 
L 906 2947 
L 1038 2947 
z
" transform="scale(0.015625)"/>
        <path id="TimesNewRomanPSMT-69" d="M 928 4444 
Q 1059 4444 1151 4351 
Q 1244 4259 1244 4128 
Q 1244 3997 1151 3903 
Q 1059 3809 928 3809 
Q 797 3809 703 3903 
Q 609 3997 609 4128 
Q 609 4259 701 4351 
Q 794 4444 928 4444 
z
M 1188 2947 
L 1188 647 
Q 1188 378 1227 289 
Q 1266 200 1342 156 
Q 1419 113 1622 113 
L 1622 0 
L 231 0 
L 231 113 
Q 441 113 512 153 
Q 584 194 626 287 
Q 669 381 669 647 
L 669 1750 
Q 669 2216 641 2353 
Q 619 2453 572 2492 
Q 525 2531 444 2531 
Q 356 2531 231 2484 
L 188 2597 
L 1050 2947 
L 1188 2947 
z
" transform="scale(0.015625)"/>
        <path id="TimesNewRomanPSMT-76" d="M 53 2863 
L 1400 2863 
L 1400 2747 
L 1313 2747 
Q 1191 2747 1127 2687 
Q 1063 2628 1063 2528 
Q 1063 2419 1128 2269 
L 1794 688 
L 2463 2328 
Q 2534 2503 2534 2594 
Q 2534 2638 2509 2666 
Q 2475 2713 2422 2730 
Q 2369 2747 2206 2747 
L 2206 2863 
L 3141 2863 
L 3141 2747 
Q 2978 2734 2916 2681 
Q 2806 2588 2719 2369 
L 1703 -88 
L 1575 -88 
L 553 2328 
Q 484 2497 421 2570 
Q 359 2644 263 2694 
Q 209 2722 53 2747 
L 53 2863 
z
" transform="scale(0.015625)"/>
        <path id="TimesNewRomanPSMT-61" d="M 1822 413 
Q 1381 72 1269 19 
Q 1100 -59 909 -59 
Q 613 -59 420 144 
Q 228 347 228 678 
Q 228 888 322 1041 
Q 450 1253 767 1440 
Q 1084 1628 1822 1897 
L 1822 2009 
Q 1822 2438 1686 2597 
Q 1550 2756 1291 2756 
Q 1094 2756 978 2650 
Q 859 2544 859 2406 
L 866 2225 
Q 866 2081 792 2003 
Q 719 1925 600 1925 
Q 484 1925 411 2006 
Q 338 2088 338 2228 
Q 338 2497 613 2722 
Q 888 2947 1384 2947 
Q 1766 2947 2009 2819 
Q 2194 2722 2281 2516 
Q 2338 2381 2338 1966 
L 2338 994 
Q 2338 584 2353 492 
Q 2369 400 2405 369 
Q 2441 338 2488 338 
Q 2538 338 2575 359 
Q 2641 400 2828 588 
L 2828 413 
Q 2478 -56 2159 -56 
Q 2006 -56 1915 50 
Q 1825 156 1822 413 
z
M 1822 616 
L 1822 1706 
Q 1350 1519 1213 1441 
Q 966 1303 859 1153 
Q 753 1003 753 825 
Q 753 600 887 451 
Q 1022 303 1197 303 
Q 1434 303 1822 616 
z
" transform="scale(0.015625)"/>
        <path id="TimesNewRomanPSMT-63" d="M 2631 1088 
Q 2516 522 2178 217 
Q 1841 -88 1431 -88 
Q 944 -88 581 321 
Q 219 731 219 1428 
Q 219 2103 620 2525 
Q 1022 2947 1584 2947 
Q 2006 2947 2278 2723 
Q 2550 2500 2550 2259 
Q 2550 2141 2473 2067 
Q 2397 1994 2259 1994 
Q 2075 1994 1981 2113 
Q 1928 2178 1911 2362 
Q 1894 2547 1784 2644 
Q 1675 2738 1481 2738 
Q 1169 2738 978 2506 
Q 725 2200 725 1697 
Q 725 1184 976 792 
Q 1228 400 1656 400 
Q 1963 400 2206 609 
Q 2378 753 2541 1131 
L 2631 1088 
z
" transform="scale(0.015625)"/>
        <path id="TimesNewRomanPSMT-79" d="M 38 2863 
L 1372 2863 
L 1372 2747 
L 1306 2747 
Q 1166 2747 1095 2686 
Q 1025 2625 1025 2534 
Q 1025 2413 1128 2197 
L 1825 753 
L 2466 2334 
Q 2519 2463 2519 2588 
Q 2519 2644 2497 2672 
Q 2472 2706 2419 2726 
Q 2366 2747 2231 2747 
L 2231 2863 
L 3163 2863 
L 3163 2747 
Q 3047 2734 2984 2696 
Q 2922 2659 2847 2556 
Q 2819 2513 2741 2316 
L 1575 -541 
Q 1406 -956 1132 -1168 
Q 859 -1381 606 -1381 
Q 422 -1381 303 -1275 
Q 184 -1169 184 -1031 
Q 184 -900 270 -820 
Q 356 -741 506 -741 
Q 609 -741 788 -809 
Q 913 -856 944 -856 
Q 1038 -856 1148 -759 
Q 1259 -663 1372 -384 
L 1575 113 
L 547 2272 
Q 500 2369 397 2513 
Q 319 2622 269 2659 
Q 197 2709 38 2747 
L 38 2863 
z
" transform="scale(0.015625)"/>
        <path id="TimesNewRomanPSMT-51" d="M 2819 -47 
Q 3138 -597 3508 -856 
Q 3878 -1116 4350 -1153 
L 4350 -1253 
Q 3919 -1238 3428 -1080 
Q 2938 -922 2498 -642 
Q 2059 -363 1741 -47 
Q 1291 134 1028 338 
Q 647 641 436 1083 
Q 225 1525 225 2128 
Q 225 3078 840 3706 
Q 1456 4334 2331 4334 
Q 3163 4334 3770 3704 
Q 4378 3075 4378 2116 
Q 4378 1338 3945 750 
Q 3513 163 2819 -47 
z
M 2294 4094 
Q 1725 4094 1378 3688 
Q 941 3178 941 2128 
Q 941 1100 1384 544 
Q 1728 116 2294 116 
Q 2881 116 3241 544 
Q 3663 1050 3663 2038 
Q 3663 2797 3431 3316 
Q 3253 3716 2958 3905 
Q 2663 4094 2294 4094 
z
" transform="scale(0.015625)"/>
        <path id="TimesNewRomanPSMT-41" d="M 2928 1419 
L 1288 1419 
L 1000 750 
Q 894 503 894 381 
Q 894 284 986 211 
Q 1078 138 1384 116 
L 1384 0 
L 50 0 
L 50 116 
Q 316 163 394 238 
Q 553 388 747 847 
L 2238 4334 
L 2347 4334 
L 3822 809 
Q 4000 384 4145 257 
Q 4291 131 4550 116 
L 4550 0 
L 2878 0 
L 2878 116 
Q 3131 128 3220 200 
Q 3309 272 3309 375 
Q 3309 513 3184 809 
L 2928 1419 
z
M 2841 1650 
L 2122 3363 
L 1384 1650 
L 2841 1650 
z
" transform="scale(0.015625)"/>
        <path id="TimesNewRomanPSMT-2d" d="M 259 1672 
L 1875 1672 
L 1875 1200 
L 259 1200 
L 259 1672 
z
" transform="scale(0.015625)"/>
        <path id="TimesNewRomanPSMT-4b" d="M 1913 2350 
L 3475 797 
Q 3859 413 4131 273 
Q 4403 134 4675 116 
L 4675 0 
L 2659 0 
L 2659 116 
Q 2841 116 2920 177 
Q 3000 238 3000 313 
Q 3000 388 2970 447 
Q 2941 506 2775 669 
L 1313 2116 
L 1313 750 
Q 1313 428 1353 325 
Q 1384 247 1484 191 
Q 1619 116 1769 116 
L 1913 116 
L 1913 0 
L 106 0 
L 106 116 
L 256 116 
Q 519 116 638 269 
Q 713 369 713 750 
L 713 3488 
Q 713 3809 672 3916 
Q 641 3991 544 4047 
Q 406 4122 256 4122 
L 106 4122 
L 106 4238 
L 1913 4238 
L 1913 4122 
L 1769 4122 
Q 1622 4122 1484 4050 
Q 1388 4000 1350 3900 
Q 1313 3800 1313 3488 
L 1313 2191 
Q 1375 2250 1741 2588 
Q 2669 3438 2863 3722 
Q 2947 3847 2947 3941 
Q 2947 4013 2881 4067 
Q 2816 4122 2659 4122 
L 2563 4122 
L 2563 4238 
L 4119 4238 
L 4119 4122 
Q 3981 4119 3868 4084 
Q 3756 4050 3593 3951 
Q 3431 3853 3194 3634 
Q 3125 3572 2559 2994 
L 1913 2350 
z
" transform="scale(0.015625)"/>
       </defs>
       <use xlink:href="#TimesNewRomanPSMT-50"/>
       <use xlink:href="#TimesNewRomanPSMT-72" x="55.615234"/>
       <use xlink:href="#TimesNewRomanPSMT-69" x="88.916016"/>
       <use xlink:href="#TimesNewRomanPSMT-76" x="116.699219"/>
       <use xlink:href="#TimesNewRomanPSMT-61" x="166.699219"/>
       <use xlink:href="#TimesNewRomanPSMT-63" x="211.083984"/>
       <use xlink:href="#TimesNewRomanPSMT-79" x="255.46875"/>
       <use xlink:href="#TimesNewRomanPSMT-51" x="305.46875"/>
       <use xlink:href="#TimesNewRomanPSMT-41" x="377.685547"/>
       <use xlink:href="#TimesNewRomanPSMT-2d" x="449.902344"/>
       <use xlink:href="#TimesNewRomanPSMT-4b" x="483.203125"/>
      </g>
     </g>
    </g>
    <g id="xtick_2">
     <g id="line2d_3">
      <path d="M 256.527882 277.72 
L 256.527882 7.2 
" clip-path="url(#p453d9e2911)" style="fill: none; stroke: #b0b0b0; stroke-width: 0.8; stroke-linecap: square"/>
     </g>
     <g id="line2d_4">
      <g>
       <use xlink:href="#md6f59bc3ec" x="256.527882" y="277.72" style="stroke: #000000; stroke-width: 0.8"/>
      </g>
     </g>
     <g id="text_2">
      <!-- PrivacyQA-L -->
      <g transform="translate(191.214132 301.385) scale(0.24 -0.24)">
       <defs>
        <path id="TimesNewRomanPSMT-4c" d="M 3669 1172 
L 3772 1150 
L 3409 0 
L 128 0 
L 128 116 
L 288 116 
Q 556 116 672 291 
Q 738 391 738 753 
L 738 3488 
Q 738 3884 650 3984 
Q 528 4122 288 4122 
L 128 4122 
L 128 4238 
L 2047 4238 
L 2047 4122 
Q 1709 4125 1573 4059 
Q 1438 3994 1388 3894 
Q 1338 3794 1338 3416 
L 1338 753 
Q 1338 494 1388 397 
Q 1425 331 1503 300 
Q 1581 269 1991 269 
L 2300 269 
Q 2788 269 2984 341 
Q 3181 413 3343 595 
Q 3506 778 3669 1172 
z
" transform="scale(0.015625)"/>
       </defs>
       <use xlink:href="#TimesNewRomanPSMT-50"/>
       <use xlink:href="#TimesNewRomanPSMT-72" x="55.615234"/>
       <use xlink:href="#TimesNewRomanPSMT-69" x="88.916016"/>
       <use xlink:href="#TimesNewRomanPSMT-76" x="116.699219"/>
       <use xlink:href="#TimesNewRomanPSMT-61" x="166.699219"/>
       <use xlink:href="#TimesNewRomanPSMT-63" x="211.083984"/>
       <use xlink:href="#TimesNewRomanPSMT-79" x="255.46875"/>
       <use xlink:href="#TimesNewRomanPSMT-51" x="305.46875"/>
       <use xlink:href="#TimesNewRomanPSMT-41" x="377.685547"/>
       <use xlink:href="#TimesNewRomanPSMT-2d" x="449.902344"/>
       <use xlink:href="#TimesNewRomanPSMT-4c" x="483.203125"/>
      </g>
     </g>
    </g>
    <g id="text_3">
     <!-- (a) -->
     <g transform="translate(170.653484 324.45125) scale(0.2 -0.2)">
      <defs>
       <path id="TimesNewRomanPSMT-28" d="M 1988 -1253 
L 1988 -1369 
Q 1516 -1131 1200 -813 
Q 750 -359 506 256 
Q 263 872 263 1534 
Q 263 2503 741 3301 
Q 1219 4100 1988 4444 
L 1988 4313 
Q 1603 4100 1356 3731 
Q 1109 3363 987 2797 
Q 866 2231 866 1616 
Q 866 947 969 400 
Q 1050 -31 1165 -292 
Q 1281 -553 1476 -793 
Q 1672 -1034 1988 -1253 
z
" transform="scale(0.015625)"/>
       <path id="TimesNewRomanPSMT-29" d="M 144 4313 
L 144 4444 
Q 619 4209 934 3891 
Q 1381 3434 1625 2820 
Q 1869 2206 1869 1541 
Q 1869 572 1392 -226 
Q 916 -1025 144 -1369 
L 144 -1253 
Q 528 -1038 776 -670 
Q 1025 -303 1145 264 
Q 1266 831 1266 1447 
Q 1266 2113 1163 2663 
Q 1084 3094 967 3353 
Q 850 3613 656 3853 
Q 463 4094 144 4313 
z
" transform="scale(0.015625)"/>
      </defs>
      <use xlink:href="#TimesNewRomanPSMT-28"/>
      <use xlink:href="#TimesNewRomanPSMT-61" x="33.300781"/>
      <use xlink:href="#TimesNewRomanPSMT-29" x="77.685547"/>
     </g>
    </g>
   </g>
   <g id="matplotlib.axis_2">
    <g id="ytick_1">
     <g id="line2d_5">
      <path d="M 32.2 215.858808 
L 331.303843 215.858808 
" clip-path="url(#p453d9e2911)" style="fill: none; stroke: #b0b0b0; stroke-width: 0.8; stroke-linecap: square"/>
     </g>
     <g id="line2d_6">
      <defs>
       <path id="m34cc7b7a26" d="M 0 0 
L -3.5 0 
" style="stroke: #000000; stroke-width: 0.8"/>
      </defs>
      <g>
       <use xlink:href="#m34cc7b7a26" x="32.2" y="215.858808" style="stroke: #000000; stroke-width: 0.8"/>
      </g>
     </g>
     <g id="text_4">
      <!-- 15 -->
      <g transform="translate(7.2 222.108183) scale(0.18 -0.18)">
       <defs>
        <path id="TimesNewRomanPSMT-31" d="M 750 3822 
L 1781 4325 
L 1884 4325 
L 1884 747 
Q 1884 391 1914 303 
Q 1944 216 2037 169 
Q 2131 122 2419 116 
L 2419 0 
L 825 0 
L 825 116 
Q 1125 122 1212 167 
Q 1300 213 1334 289 
Q 1369 366 1369 747 
L 1369 3034 
Q 1369 3497 1338 3628 
Q 1316 3728 1258 3775 
Q 1200 3822 1119 3822 
Q 1003 3822 797 3725 
L 750 3822 
z
" transform="scale(0.015625)"/>
        <path id="TimesNewRomanPSMT-35" d="M 2778 4238 
L 2534 3706 
L 1259 3706 
L 981 3138 
Q 1809 3016 2294 2522 
Q 2709 2097 2709 1522 
Q 2709 1188 2573 903 
Q 2438 619 2231 419 
Q 2025 219 1772 97 
Q 1413 -75 1034 -75 
Q 653 -75 479 54 
Q 306 184 306 341 
Q 306 428 378 495 
Q 450 563 559 563 
Q 641 563 702 538 
Q 763 513 909 409 
Q 1144 247 1384 247 
Q 1750 247 2026 523 
Q 2303 800 2303 1197 
Q 2303 1581 2056 1914 
Q 1809 2247 1375 2428 
Q 1034 2569 447 2591 
L 1259 4238 
L 2778 4238 
z
" transform="scale(0.015625)"/>
       </defs>
       <use xlink:href="#TimesNewRomanPSMT-31"/>
       <use xlink:href="#TimesNewRomanPSMT-35" x="50"/>
      </g>
     </g>
    </g>
    <g id="ytick_2">
     <g id="line2d_7">
      <path d="M 32.2 149.180002 
L 331.303843 149.180002 
" clip-path="url(#p453d9e2911)" style="fill: none; stroke: #b0b0b0; stroke-width: 0.8; stroke-linecap: square"/>
     </g>
     <g id="line2d_8">
      <g>
       <use xlink:href="#m34cc7b7a26" x="32.2" y="149.180002" style="stroke: #000000; stroke-width: 0.8"/>
      </g>
     </g>
     <g id="text_5">
      <!-- 20 -->
      <g transform="translate(7.2 155.429377) scale(0.18 -0.18)">
       <defs>
        <path id="TimesNewRomanPSMT-32" d="M 2934 816 
L 2638 0 
L 138 0 
L 138 116 
Q 1241 1122 1691 1759 
Q 2141 2397 2141 2925 
Q 2141 3328 1894 3587 
Q 1647 3847 1303 3847 
Q 991 3847 742 3664 
Q 494 3481 375 3128 
L 259 3128 
Q 338 3706 661 4015 
Q 984 4325 1469 4325 
Q 1984 4325 2329 3994 
Q 2675 3663 2675 3213 
Q 2675 2891 2525 2569 
Q 2294 2063 1775 1497 
Q 997 647 803 472 
L 1909 472 
Q 2247 472 2383 497 
Q 2519 522 2628 598 
Q 2738 675 2819 816 
L 2934 816 
z
" transform="scale(0.015625)"/>
        <path id="TimesNewRomanPSMT-30" d="M 231 2094 
Q 231 2819 450 3342 
Q 669 3866 1031 4122 
Q 1313 4325 1613 4325 
Q 2100 4325 2488 3828 
Q 2972 3213 2972 2159 
Q 2972 1422 2759 906 
Q 2547 391 2217 158 
Q 1888 -75 1581 -75 
Q 975 -75 572 641 
Q 231 1244 231 2094 
z
M 844 2016 
Q 844 1141 1059 588 
Q 1238 122 1591 122 
Q 1759 122 1940 273 
Q 2122 425 2216 781 
Q 2359 1319 2359 2297 
Q 2359 3022 2209 3506 
Q 2097 3866 1919 4016 
Q 1791 4119 1609 4119 
Q 1397 4119 1231 3928 
Q 1006 3669 925 3112 
Q 844 2556 844 2016 
z
" transform="scale(0.015625)"/>
       </defs>
       <use xlink:href="#TimesNewRomanPSMT-32"/>
       <use xlink:href="#TimesNewRomanPSMT-30" x="50"/>
      </g>
     </g>
    </g>
    <g id="ytick_3">
     <g id="line2d_9">
      <path d="M 32.2 82.501196 
L 331.303843 82.501196 
" clip-path="url(#p453d9e2911)" style="fill: none; stroke: #b0b0b0; stroke-width: 0.8; stroke-linecap: square"/>
     </g>
     <g id="line2d_10">
      <g>
       <use xlink:href="#m34cc7b7a26" x="32.2" y="82.501196" style="stroke: #000000; stroke-width: 0.8"/>
      </g>
     </g>
     <g id="text_6">
      <!-- 25 -->
      <g transform="translate(7.2 88.750571) scale(0.18 -0.18)">
       <use xlink:href="#TimesNewRomanPSMT-32"/>
       <use xlink:href="#TimesNewRomanPSMT-35" x="50"/>
      </g>
     </g>
    </g>
    <g id="ytick_4">
     <g id="line2d_11">
      <path d="M 32.2 15.822391 
L 331.303843 15.822391 
" clip-path="url(#p453d9e2911)" style="fill: none; stroke: #b0b0b0; stroke-width: 0.8; stroke-linecap: square"/>
     </g>
     <g id="line2d_12">
      <g>
       <use xlink:href="#m34cc7b7a26" x="32.2" y="15.822391" style="stroke: #000000; stroke-width: 0.8"/>
      </g>
     </g>
     <g id="text_7">
      <!-- 30 -->
      <g transform="translate(7.2 22.071766) scale(0.18 -0.18)">
       <defs>
        <path id="TimesNewRomanPSMT-33" d="M 325 3431 
Q 506 3859 782 4092 
Q 1059 4325 1472 4325 
Q 1981 4325 2253 3994 
Q 2459 3747 2459 3466 
Q 2459 3003 1878 2509 
Q 2269 2356 2469 2072 
Q 2669 1788 2669 1403 
Q 2669 853 2319 450 
Q 1863 -75 997 -75 
Q 569 -75 414 31 
Q 259 138 259 259 
Q 259 350 332 419 
Q 406 488 509 488 
Q 588 488 669 463 
Q 722 447 909 348 
Q 1097 250 1169 231 
Q 1284 197 1416 197 
Q 1734 197 1970 444 
Q 2206 691 2206 1028 
Q 2206 1275 2097 1509 
Q 2016 1684 1919 1775 
Q 1784 1900 1550 2001 
Q 1316 2103 1072 2103 
L 972 2103 
L 972 2197 
Q 1219 2228 1467 2375 
Q 1716 2522 1828 2728 
Q 1941 2934 1941 3181 
Q 1941 3503 1739 3701 
Q 1538 3900 1238 3900 
Q 753 3900 428 3381 
L 325 3431 
z
" transform="scale(0.015625)"/>
       </defs>
       <use xlink:href="#TimesNewRomanPSMT-33"/>
       <use xlink:href="#TimesNewRomanPSMT-30" x="50"/>
      </g>
     </g>
    </g>
   </g>
   <g id="line2d_13">
    <path d="M 59.199172 168.539693 
L 154.75275 168.539693 
" clip-path="url(#p453d9e2911)" style="fill: none; stroke-dasharray: 1.5625,0.9375; stroke-dashoffset: 0; stroke: #3f3f3f; stroke-width: 1.25"/>
   </g>
   <g id="line2d_14">
    <path d="M 47.517506 145.404578 
L 166.434416 145.404578 
" clip-path="url(#p453d9e2911)" style="fill: none; stroke-dasharray: 3.125,1.25; stroke-dashoffset: 0; stroke: #3f3f3f; stroke-width: 1.25"/>
   </g>
   <g id="line2d_15">
    <path d="M 62.679065 122.28656 
L 151.272856 122.28656 
" clip-path="url(#p453d9e2911)" style="fill: none; stroke-dasharray: 1.5625,0.9375; stroke-dashoffset: 0; stroke: #3f3f3f; stroke-width: 1.25"/>
   </g>
   <g id="line2d_16">
    <path d="M 198.364531 201.591839 
L 314.691233 201.591839 
" clip-path="url(#p453d9e2911)" style="fill: none; stroke-dasharray: 1.5625,0.9375; stroke-dashoffset: 0; stroke: #3f3f3f; stroke-width: 1.25"/>
   </g>
   <g id="line2d_17">
    <path d="M 199.023647 183.231771 
L 314.032118 183.231771 
" clip-path="url(#p453d9e2911)" style="fill: none; stroke-dasharray: 3.125,1.25; stroke-dashoffset: 0; stroke: #3f3f3f; stroke-width: 1.25"/>
   </g>
   <g id="line2d_18">
    <path d="M 204.967137 164.986211 
L 308.088628 164.986211 
" clip-path="url(#p453d9e2911)" style="fill: none; stroke-dasharray: 1.5625,0.9375; stroke-dashoffset: 0; stroke: #3f3f3f; stroke-width: 1.25"/>
   </g>
   <g id="patch_3">
    <path d="M 32.2 277.72 
L 32.2 7.2 
" style="fill: none; stroke: #000000; stroke-width: 0.8; stroke-linejoin: miter; stroke-linecap: square"/>
   </g>
   <g id="patch_4">
    <path d="M 331.303843 277.72 
L 331.303843 7.2 
" style="fill: none; stroke: #000000; stroke-width: 0.8; stroke-linejoin: miter; stroke-linecap: square"/>
   </g>
   <g id="patch_5">
    <path d="M 32.2 277.72 
L 331.303843 277.72 
" style="fill: none; stroke: #000000; stroke-width: 0.8; stroke-linejoin: miter; stroke-linecap: square"/>
   </g>
   <g id="patch_6">
    <path d="M 32.2 7.2 
L 331.303843 7.2 
" style="fill: none; stroke: #000000; stroke-width: 0.8; stroke-linejoin: miter; stroke-linecap: square"/>
   </g>
  </g>
  <g id="axes_2">
   <g id="patch_7">
    <path d="M 386.659752 277.72 
L 685.763595 277.72 
L 685.763595 7.2 
L 386.659752 7.2 
z
" style="fill: #ffffff"/>
   </g>
   <g id="patch_8">
    <path d="M 400.255381 277.72 
L 424.425389 277.72 
L 424.425389 134.587725 
L 400.255381 134.587725 
z
" clip-path="url(#pfb49f0ae05)" style="fill: #1f77b4; opacity: 0.7"/>
   </g>
   <g id="patch_9">
    <path d="M 551.317928 277.72 
L 575.487936 277.72 
L 575.487936 63.021587 
L 551.317928 63.021587 
z
" clip-path="url(#pfb49f0ae05)" style="fill: #1f77b4; opacity: 0.7"/>
   </g>
   <g id="patch_10">
    <path d="M 424.425389 277.72 
L 448.595396 277.72 
L 448.595396 140.313016 
L 424.425389 140.313016 
z
" clip-path="url(#pfb49f0ae05)" style="fill: #ff7f0e; opacity: 0.7"/>
   </g>
   <g id="patch_11">
    <path d="M 575.487936 277.72 
L 599.657943 277.72 
L 599.657943 105.96127 
L 575.487936 105.96127 
z
" clip-path="url(#pfb49f0ae05)" style="fill: #ff7f0e; opacity: 0.7"/>
   </g>
   <g id="patch_12">
    <path d="M 448.595396 277.72 
L 472.765404 277.72 
L 472.765404 105.96127 
L 448.595396 105.96127 
z
" clip-path="url(#pfb49f0ae05)" style="fill: #2ca02c; opacity: 0.7"/>
   </g>
   <g id="patch_13">
    <path d="M 599.657943 277.72 
L 623.827951 277.72 
L 623.827951 20.081905 
L 599.657943 20.081905 
z
" clip-path="url(#pfb49f0ae05)" style="fill: #2ca02c; opacity: 0.7"/>
   </g>
   <g id="patch_14">
    <path d="M 472.765404 277.72 
L 496.935411 277.72 
L 496.935411 249.093545 
L 472.765404 249.093545 
z
" clip-path="url(#pfb49f0ae05)" style="fill: #d62728; opacity: 0.7"/>
   </g>
   <g id="patch_15">
    <path d="M 623.827951 277.72 
L 647.997958 277.72 
L 647.997958 251.95619 
L 623.827951 251.95619 
z
" clip-path="url(#pfb49f0ae05)" style="fill: #d62728; opacity: 0.7"/>
   </g>
   <g id="patch_16">
    <path d="M 496.935411 277.72 
L 521.105419 277.72 
L 521.105419 260.544127 
L 496.935411 260.544127 
z
" clip-path="url(#pfb49f0ae05)" style="fill: #9467bd; opacity: 0.7"/>
   </g>
   <g id="patch_17">
    <path d="M 647.997958 277.72 
L 672.167966 277.72 
L 672.167966 263.406772 
L 647.997958 263.406772 
z
" clip-path="url(#pfb49f0ae05)" style="fill: #9467bd; opacity: 0.7"/>
   </g>
   <g id="matplotlib.axis_3">
    <g id="xtick_3">
     <g id="line2d_19">
      <path d="M 460.6804 277.72 
L 460.6804 7.2 
" clip-path="url(#pfb49f0ae05)" style="fill: none; stroke: #b0b0b0; stroke-width: 0.8; stroke-linecap: square"/>
     </g>
     <g id="line2d_20">
      <g>
       <use xlink:href="#md6f59bc3ec" x="460.6804" y="277.72" style="stroke: #000000; stroke-width: 0.8"/>
      </g>
     </g>
     <g id="text_8">
      <!-- PrivacyQA-K -->
      <g transform="translate(394.029775 301.385) scale(0.24 -0.24)">
       <use xlink:href="#TimesNewRomanPSMT-50"/>
       <use xlink:href="#TimesNewRomanPSMT-72" x="55.615234"/>
       <use xlink:href="#TimesNewRomanPSMT-69" x="88.916016"/>
       <use xlink:href="#TimesNewRomanPSMT-76" x="116.699219"/>
       <use xlink:href="#TimesNewRomanPSMT-61" x="166.699219"/>
       <use xlink:href="#TimesNewRomanPSMT-63" x="211.083984"/>
       <use xlink:href="#TimesNewRomanPSMT-79" x="255.46875"/>
       <use xlink:href="#TimesNewRomanPSMT-51" x="305.46875"/>
       <use xlink:href="#TimesNewRomanPSMT-41" x="377.685547"/>
       <use xlink:href="#TimesNewRomanPSMT-2d" x="449.902344"/>
       <use xlink:href="#TimesNewRomanPSMT-4b" x="483.203125"/>
      </g>
     </g>
    </g>
    <g id="xtick_4">
     <g id="line2d_21">
      <path d="M 611.742947 277.72 
L 611.742947 7.2 
" clip-path="url(#pfb49f0ae05)" style="fill: none; stroke: #b0b0b0; stroke-width: 0.8; stroke-linecap: square"/>
     </g>
     <g id="line2d_22">
      <g>
       <use xlink:href="#md6f59bc3ec" x="611.742947" y="277.72" style="stroke: #000000; stroke-width: 0.8"/>
      </g>
     </g>
     <g id="text_9">
      <!-- PrivacyQA-L -->
      <g transform="translate(546.429197 301.385) scale(0.24 -0.24)">
       <use xlink:href="#TimesNewRomanPSMT-50"/>
       <use xlink:href="#TimesNewRomanPSMT-72" x="55.615234"/>
       <use xlink:href="#TimesNewRomanPSMT-69" x="88.916016"/>
       <use xlink:href="#TimesNewRomanPSMT-76" x="116.699219"/>
       <use xlink:href="#TimesNewRomanPSMT-61" x="166.699219"/>
       <use xlink:href="#TimesNewRomanPSMT-63" x="211.083984"/>
       <use xlink:href="#TimesNewRomanPSMT-79" x="255.46875"/>
       <use xlink:href="#TimesNewRomanPSMT-51" x="305.46875"/>
       <use xlink:href="#TimesNewRomanPSMT-41" x="377.685547"/>
       <use xlink:href="#TimesNewRomanPSMT-2d" x="449.902344"/>
       <use xlink:href="#TimesNewRomanPSMT-4c" x="483.203125"/>
      </g>
     </g>
    </g>
    <g id="text_10">
     <!-- (b) -->
     <g transform="translate(524.552299 324.45125) scale(0.2 -0.2)">
      <defs>
       <path id="TimesNewRomanPSMT-62" d="M 984 2369 
Q 1400 2947 1881 2947 
Q 2322 2947 2650 2570 
Q 2978 2194 2978 1541 
Q 2978 778 2472 313 
Q 2038 -88 1503 -88 
Q 1253 -88 995 3 
Q 738 94 469 275 
L 469 3241 
Q 469 3728 445 3840 
Q 422 3953 372 3993 
Q 322 4034 247 4034 
Q 159 4034 28 3984 
L -16 4094 
L 844 4444 
L 984 4444 
L 984 2369 
z
M 984 2169 
L 984 456 
Q 1144 300 1314 220 
Q 1484 141 1663 141 
Q 1947 141 2192 453 
Q 2438 766 2438 1363 
Q 2438 1913 2192 2208 
Q 1947 2503 1634 2503 
Q 1469 2503 1303 2419 
Q 1178 2356 984 2169 
z
" transform="scale(0.015625)"/>
      </defs>
      <use xlink:href="#TimesNewRomanPSMT-28"/>
      <use xlink:href="#TimesNewRomanPSMT-62" x="33.300781"/>
      <use xlink:href="#TimesNewRomanPSMT-29" x="83.300781"/>
     </g>
    </g>
   </g>
   <g id="matplotlib.axis_4">
    <g id="ytick_5">
     <g id="line2d_23">
      <path d="M 386.659752 277.72 
L 685.763595 277.72 
" clip-path="url(#pfb49f0ae05)" style="fill: none; stroke: #b0b0b0; stroke-width: 0.8; stroke-linecap: square"/>
     </g>
     <g id="line2d_24">
      <g>
       <use xlink:href="#m34cc7b7a26" x="386.659752" y="277.72" style="stroke: #000000; stroke-width: 0.8"/>
      </g>
     </g>
     <g id="text_11">
      <!-- 0 -->
      <g transform="translate(370.659752 283.969375) scale(0.18 -0.18)">
       <use xlink:href="#TimesNewRomanPSMT-30"/>
      </g>
     </g>
    </g>
    <g id="ytick_6">
     <g id="line2d_25">
      <path d="M 386.659752 220.46709 
L 685.763595 220.46709 
" clip-path="url(#pfb49f0ae05)" style="fill: none; stroke: #b0b0b0; stroke-width: 0.8; stroke-linecap: square"/>
     </g>
     <g id="line2d_26">
      <g>
       <use xlink:href="#m34cc7b7a26" x="386.659752" y="220.46709" style="stroke: #000000; stroke-width: 0.8"/>
      </g>
     </g>
     <g id="text_12">
      <!-- 200 -->
      <g transform="translate(352.659752 226.716465) scale(0.18 -0.18)">
       <use xlink:href="#TimesNewRomanPSMT-32"/>
       <use xlink:href="#TimesNewRomanPSMT-30" x="50"/>
       <use xlink:href="#TimesNewRomanPSMT-30" x="100"/>
      </g>
     </g>
    </g>
    <g id="ytick_7">
     <g id="line2d_27">
      <path d="M 386.659752 163.21418 
L 685.763595 163.21418 
" clip-path="url(#pfb49f0ae05)" style="fill: none; stroke: #b0b0b0; stroke-width: 0.8; stroke-linecap: square"/>
     </g>
     <g id="line2d_28">
      <g>
       <use xlink:href="#m34cc7b7a26" x="386.659752" y="163.21418" style="stroke: #000000; stroke-width: 0.8"/>
      </g>
     </g>
     <g id="text_13">
      <!-- 400 -->
      <g transform="translate(352.659752 169.463555) scale(0.18 -0.18)">
       <defs>
        <path id="TimesNewRomanPSMT-34" d="M 2978 1563 
L 2978 1119 
L 2409 1119 
L 2409 0 
L 1894 0 
L 1894 1119 
L 100 1119 
L 100 1519 
L 2066 4325 
L 2409 4325 
L 2409 1563 
L 2978 1563 
z
M 1894 1563 
L 1894 3666 
L 406 1563 
L 1894 1563 
z
" transform="scale(0.015625)"/>
       </defs>
       <use xlink:href="#TimesNewRomanPSMT-34"/>
       <use xlink:href="#TimesNewRomanPSMT-30" x="50"/>
       <use xlink:href="#TimesNewRomanPSMT-30" x="100"/>
      </g>
     </g>
    </g>
    <g id="ytick_8">
     <g id="line2d_29">
      <path d="M 386.659752 105.96127 
L 685.763595 105.96127 
" clip-path="url(#pfb49f0ae05)" style="fill: none; stroke: #b0b0b0; stroke-width: 0.8; stroke-linecap: square"/>
     </g>
     <g id="line2d_30">
      <g>
       <use xlink:href="#m34cc7b7a26" x="386.659752" y="105.96127" style="stroke: #000000; stroke-width: 0.8"/>
      </g>
     </g>
     <g id="text_14">
      <!-- 600 -->
      <g transform="translate(352.659752 112.210645) scale(0.18 -0.18)">
       <defs>
        <path id="TimesNewRomanPSMT-36" d="M 2869 4325 
L 2869 4209 
Q 2456 4169 2195 4045 
Q 1934 3922 1679 3669 
Q 1425 3416 1258 3105 
Q 1091 2794 978 2366 
Q 1428 2675 1881 2675 
Q 2316 2675 2634 2325 
Q 2953 1975 2953 1425 
Q 2953 894 2631 456 
Q 2244 -75 1606 -75 
Q 1172 -75 869 213 
Q 275 772 275 1663 
Q 275 2231 503 2743 
Q 731 3256 1154 3653 
Q 1578 4050 1965 4187 
Q 2353 4325 2688 4325 
L 2869 4325 
z
M 925 2138 
Q 869 1716 869 1456 
Q 869 1156 980 804 
Q 1091 453 1309 247 
Q 1469 100 1697 100 
Q 1969 100 2183 356 
Q 2397 613 2397 1088 
Q 2397 1622 2184 2012 
Q 1972 2403 1581 2403 
Q 1463 2403 1327 2353 
Q 1191 2303 925 2138 
z
" transform="scale(0.015625)"/>
       </defs>
       <use xlink:href="#TimesNewRomanPSMT-36"/>
       <use xlink:href="#TimesNewRomanPSMT-30" x="50"/>
       <use xlink:href="#TimesNewRomanPSMT-30" x="100"/>
      </g>
     </g>
    </g>
    <g id="ytick_9">
     <g id="line2d_31">
      <path d="M 386.659752 48.70836 
L 685.763595 48.70836 
" clip-path="url(#pfb49f0ae05)" style="fill: none; stroke: #b0b0b0; stroke-width: 0.8; stroke-linecap: square"/>
     </g>
     <g id="line2d_32">
      <g>
       <use xlink:href="#m34cc7b7a26" x="386.659752" y="48.70836" style="stroke: #000000; stroke-width: 0.8"/>
      </g>
     </g>
     <g id="text_15">
      <!-- 800 -->
      <g transform="translate(352.659752 54.957735) scale(0.18 -0.18)">
       <defs>
        <path id="TimesNewRomanPSMT-38" d="M 1228 2134 
Q 725 2547 579 2797 
Q 434 3047 434 3316 
Q 434 3728 753 4026 
Q 1072 4325 1600 4325 
Q 2113 4325 2425 4047 
Q 2738 3769 2738 3413 
Q 2738 3175 2569 2928 
Q 2400 2681 1866 2347 
Q 2416 1922 2594 1678 
Q 2831 1359 2831 1006 
Q 2831 559 2490 242 
Q 2150 -75 1597 -75 
Q 994 -75 656 303 
Q 388 606 388 966 
Q 388 1247 577 1523 
Q 766 1800 1228 2134 
z
M 1719 2469 
Q 2094 2806 2194 3001 
Q 2294 3197 2294 3444 
Q 2294 3772 2109 3958 
Q 1925 4144 1606 4144 
Q 1288 4144 1088 3959 
Q 888 3775 888 3528 
Q 888 3366 970 3203 
Q 1053 3041 1206 2894 
L 1719 2469 
z
M 1375 2016 
Q 1116 1797 991 1539 
Q 866 1281 866 981 
Q 866 578 1086 336 
Q 1306 94 1647 94 
Q 1984 94 2187 284 
Q 2391 475 2391 747 
Q 2391 972 2272 1150 
Q 2050 1481 1375 2016 
z
" transform="scale(0.015625)"/>
       </defs>
       <use xlink:href="#TimesNewRomanPSMT-38"/>
       <use xlink:href="#TimesNewRomanPSMT-30" x="50"/>
       <use xlink:href="#TimesNewRomanPSMT-30" x="100"/>
      </g>
     </g>
    </g>
   </g>
   <g id="patch_18">
    <path d="M 386.659752 277.72 
L 386.659752 7.2 
" style="fill: none; stroke: #000000; stroke-width: 0.8; stroke-linejoin: miter; stroke-linecap: square"/>
   </g>
   <g id="patch_19">
    <path d="M 685.763595 277.72 
L 685.763595 7.2 
" style="fill: none; stroke: #000000; stroke-width: 0.8; stroke-linejoin: miter; stroke-linecap: square"/>
   </g>
   <g id="patch_20">
    <path d="M 386.659752 277.72 
L 685.763595 277.72 
" style="fill: none; stroke: #000000; stroke-width: 0.8; stroke-linejoin: miter; stroke-linecap: square"/>
   </g>
   <g id="patch_21">
    <path d="M 386.659752 7.2 
L 685.763595 7.2 
" style="fill: none; stroke: #000000; stroke-width: 0.8; stroke-linejoin: miter; stroke-linecap: square"/>
   </g>
   <g id="legend_1">
    <g id="patch_22">
     <path d="M 395.059752 101.656875 
L 495.893502 101.656875 
Q 498.293502 101.656875 498.293502 99.256875 
L 498.293502 15.6 
Q 498.293502 13.2 495.893502 13.2 
L 395.059752 13.2 
Q 392.659752 13.2 392.659752 15.6 
L 392.659752 99.256875 
Q 392.659752 101.656875 395.059752 101.656875 
z
" style="fill: #ffffff; opacity: 0.8; stroke: #cccccc; stroke-linejoin: miter"/>
    </g>
    <g id="patch_23">
     <path d="M 397.459752 26.4 
L 421.459752 26.4 
L 421.459752 18 
L 397.459752 18 
z
" style="fill: #1f77b4; opacity: 0.7"/>
    </g>
    <g id="text_16">
     <!-- Location -->
     <g transform="translate(431.059752 26.4) scale(0.12 -0.12)">
      <defs>
       <path id="TimesNewRomanPSMT-6f" d="M 1600 2947 
Q 2250 2947 2644 2453 
Q 2978 2031 2978 1484 
Q 2978 1100 2793 706 
Q 2609 313 2286 112 
Q 1963 -88 1566 -88 
Q 919 -88 538 428 
Q 216 863 216 1403 
Q 216 1797 411 2186 
Q 606 2575 925 2761 
Q 1244 2947 1600 2947 
z
M 1503 2744 
Q 1338 2744 1170 2645 
Q 1003 2547 900 2300 
Q 797 2053 797 1666 
Q 797 1041 1045 587 
Q 1294 134 1700 134 
Q 2003 134 2200 384 
Q 2397 634 2397 1244 
Q 2397 2006 2069 2444 
Q 1847 2744 1503 2744 
z
" transform="scale(0.015625)"/>
       <path id="TimesNewRomanPSMT-74" d="M 1031 3803 
L 1031 2863 
L 1700 2863 
L 1700 2644 
L 1031 2644 
L 1031 788 
Q 1031 509 1111 412 
Q 1191 316 1316 316 
Q 1419 316 1516 380 
Q 1613 444 1666 569 
L 1788 569 
Q 1678 263 1478 108 
Q 1278 -47 1066 -47 
Q 922 -47 784 33 
Q 647 113 581 261 
Q 516 409 516 719 
L 516 2644 
L 63 2644 
L 63 2747 
Q 234 2816 414 2980 
Q 594 3144 734 3369 
Q 806 3488 934 3803 
L 1031 3803 
z
" transform="scale(0.015625)"/>
       <path id="TimesNewRomanPSMT-6e" d="M 1034 2341 
Q 1538 2947 1994 2947 
Q 2228 2947 2397 2830 
Q 2566 2713 2666 2444 
Q 2734 2256 2734 1869 
L 2734 647 
Q 2734 375 2778 278 
Q 2813 200 2889 156 
Q 2966 113 3172 113 
L 3172 0 
L 1756 0 
L 1756 113 
L 1816 113 
Q 2016 113 2095 173 
Q 2175 234 2206 353 
Q 2219 400 2219 647 
L 2219 1819 
Q 2219 2209 2117 2386 
Q 2016 2563 1775 2563 
Q 1403 2563 1034 2156 
L 1034 647 
Q 1034 356 1069 288 
Q 1113 197 1189 155 
Q 1266 113 1500 113 
L 1500 0 
L 84 0 
L 84 113 
L 147 113 
Q 366 113 442 223 
Q 519 334 519 647 
L 519 1709 
Q 519 2225 495 2337 
Q 472 2450 423 2490 
Q 375 2531 294 2531 
Q 206 2531 84 2484 
L 38 2597 
L 900 2947 
L 1034 2947 
L 1034 2341 
z
" transform="scale(0.015625)"/>
      </defs>
      <use xlink:href="#TimesNewRomanPSMT-4c"/>
      <use xlink:href="#TimesNewRomanPSMT-6f" x="61.083984"/>
      <use xlink:href="#TimesNewRomanPSMT-63" x="111.083984"/>
      <use xlink:href="#TimesNewRomanPSMT-61" x="155.46875"/>
      <use xlink:href="#TimesNewRomanPSMT-74" x="199.853516"/>
      <use xlink:href="#TimesNewRomanPSMT-69" x="227.636719"/>
      <use xlink:href="#TimesNewRomanPSMT-6f" x="255.419922"/>
      <use xlink:href="#TimesNewRomanPSMT-6e" x="305.419922"/>
     </g>
    </g>
    <g id="patch_24">
     <path d="M 397.459752 43.366875 
L 421.459752 43.366875 
L 421.459752 34.966875 
L 397.459752 34.966875 
z
" style="fill: #ff7f0e; opacity: 0.7"/>
    </g>
    <g id="text_17">
     <!-- Organization -->
     <g transform="translate(431.059752 43.366875) scale(0.12 -0.12)">
      <defs>
       <path id="TimesNewRomanPSMT-4f" d="M 2341 4334 
Q 3166 4334 3770 3707 
Q 4375 3081 4375 2144 
Q 4375 1178 3765 540 
Q 3156 -97 2291 -97 
Q 1416 -97 820 525 
Q 225 1147 225 2134 
Q 225 3144 913 3781 
Q 1509 4334 2341 4334 
z
M 2281 4106 
Q 1713 4106 1369 3684 
Q 941 3159 941 2147 
Q 941 1109 1384 550 
Q 1725 125 2284 125 
Q 2881 125 3270 590 
Q 3659 1056 3659 2059 
Q 3659 3147 3231 3681 
Q 2888 4106 2281 4106 
z
" transform="scale(0.015625)"/>
       <path id="TimesNewRomanPSMT-67" d="M 966 1044 
Q 703 1172 562 1401 
Q 422 1631 422 1909 
Q 422 2334 742 2640 
Q 1063 2947 1563 2947 
Q 1972 2947 2272 2747 
L 2878 2747 
Q 3013 2747 3034 2739 
Q 3056 2731 3066 2713 
Q 3084 2684 3084 2613 
Q 3084 2531 3069 2500 
Q 3059 2484 3036 2475 
Q 3013 2466 2878 2466 
L 2506 2466 
Q 2681 2241 2681 1891 
Q 2681 1491 2375 1206 
Q 2069 922 1553 922 
Q 1341 922 1119 984 
Q 981 866 932 777 
Q 884 688 884 625 
Q 884 572 936 522 
Q 988 472 1138 450 
Q 1225 438 1575 428 
Q 2219 413 2409 384 
Q 2700 344 2873 169 
Q 3047 -6 3047 -263 
Q 3047 -616 2716 -925 
Q 2228 -1381 1444 -1381 
Q 841 -1381 425 -1109 
Q 191 -953 191 -784 
Q 191 -709 225 -634 
Q 278 -519 444 -313 
Q 466 -284 763 25 
Q 600 122 533 198 
Q 466 275 466 372 
Q 466 481 555 628 
Q 644 775 966 1044 
z
M 1509 2797 
Q 1278 2797 1122 2612 
Q 966 2428 966 2047 
Q 966 1553 1178 1281 
Q 1341 1075 1591 1075 
Q 1828 1075 1981 1253 
Q 2134 1431 2134 1813 
Q 2134 2309 1919 2591 
Q 1759 2797 1509 2797 
z
M 934 0 
Q 788 -159 713 -296 
Q 638 -434 638 -550 
Q 638 -700 819 -813 
Q 1131 -1006 1722 -1006 
Q 2284 -1006 2551 -807 
Q 2819 -609 2819 -384 
Q 2819 -222 2659 -153 
Q 2497 -84 2016 -72 
Q 1313 -53 934 0 
z
" transform="scale(0.015625)"/>
       <path id="TimesNewRomanPSMT-7a" d="M 2688 878 
L 2653 0 
L 128 0 
L 128 113 
L 2028 2644 
L 1091 2644 
Q 788 2644 694 2605 
Q 600 2566 541 2456 
Q 456 2300 444 2069 
L 319 2069 
L 338 2863 
L 2738 2863 
L 2738 2747 
L 819 209 
L 1863 209 
Q 2191 209 2308 264 
Q 2425 319 2497 456 
Q 2547 556 2581 878 
L 2688 878 
z
" transform="scale(0.015625)"/>
      </defs>
      <use xlink:href="#TimesNewRomanPSMT-4f"/>
      <use xlink:href="#TimesNewRomanPSMT-72" x="72.216797"/>
      <use xlink:href="#TimesNewRomanPSMT-67" x="103.767578"/>
      <use xlink:href="#TimesNewRomanPSMT-61" x="153.767578"/>
      <use xlink:href="#TimesNewRomanPSMT-6e" x="198.152344"/>
      <use xlink:href="#TimesNewRomanPSMT-69" x="248.152344"/>
      <use xlink:href="#TimesNewRomanPSMT-7a" x="275.935547"/>
      <use xlink:href="#TimesNewRomanPSMT-61" x="320.320312"/>
      <use xlink:href="#TimesNewRomanPSMT-74" x="364.705078"/>
      <use xlink:href="#TimesNewRomanPSMT-69" x="392.488281"/>
      <use xlink:href="#TimesNewRomanPSMT-6f" x="420.271484"/>
      <use xlink:href="#TimesNewRomanPSMT-6e" x="470.271484"/>
     </g>
    </g>
    <g id="patch_25">
     <path d="M 397.459752 60.35625 
L 421.459752 60.35625 
L 421.459752 51.95625 
L 397.459752 51.95625 
z
" style="fill: #2ca02c; opacity: 0.7"/>
    </g>
    <g id="text_18">
     <!-- Name -->
     <g transform="translate(431.059752 60.35625) scale(0.12 -0.12)">
      <defs>
       <path id="TimesNewRomanPSMT-4e" d="M -84 4238 
L 1066 4238 
L 3656 1059 
L 3656 3503 
Q 3656 3894 3569 3991 
Q 3453 4122 3203 4122 
L 3056 4122 
L 3056 4238 
L 4531 4238 
L 4531 4122 
L 4381 4122 
Q 4113 4122 4000 3959 
Q 3931 3859 3931 3503 
L 3931 -69 
L 3819 -69 
L 1025 3344 
L 1025 734 
Q 1025 344 1109 247 
Q 1228 116 1475 116 
L 1625 116 
L 1625 0 
L 150 0 
L 150 116 
L 297 116 
Q 569 116 681 278 
Q 750 378 750 734 
L 750 3681 
Q 566 3897 470 3965 
Q 375 4034 191 4094 
Q 100 4122 -84 4122 
L -84 4238 
z
" transform="scale(0.015625)"/>
       <path id="TimesNewRomanPSMT-6d" d="M 1050 2338 
Q 1363 2650 1419 2697 
Q 1559 2816 1721 2881 
Q 1884 2947 2044 2947 
Q 2313 2947 2506 2790 
Q 2700 2634 2766 2338 
Q 3088 2713 3309 2830 
Q 3531 2947 3766 2947 
Q 3994 2947 4170 2830 
Q 4347 2713 4450 2447 
Q 4519 2266 4519 1878 
L 4519 647 
Q 4519 378 4559 278 
Q 4591 209 4675 161 
Q 4759 113 4950 113 
L 4950 0 
L 3538 0 
L 3538 113 
L 3597 113 
Q 3781 113 3884 184 
Q 3956 234 3988 344 
Q 4000 397 4000 647 
L 4000 1878 
Q 4000 2228 3916 2372 
Q 3794 2572 3525 2572 
Q 3359 2572 3192 2489 
Q 3025 2406 2788 2181 
L 2781 2147 
L 2788 2013 
L 2788 647 
Q 2788 353 2820 281 
Q 2853 209 2943 161 
Q 3034 113 3253 113 
L 3253 0 
L 1806 0 
L 1806 113 
Q 2044 113 2133 169 
Q 2222 225 2256 338 
Q 2272 391 2272 647 
L 2272 1878 
Q 2272 2228 2169 2381 
Q 2031 2581 1784 2581 
Q 1616 2581 1450 2491 
Q 1191 2353 1050 2181 
L 1050 647 
Q 1050 366 1089 281 
Q 1128 197 1204 155 
Q 1281 113 1516 113 
L 1516 0 
L 100 0 
L 100 113 
Q 297 113 375 155 
Q 453 197 493 289 
Q 534 381 534 647 
L 534 1741 
Q 534 2213 506 2350 
Q 484 2453 437 2492 
Q 391 2531 309 2531 
Q 222 2531 100 2484 
L 53 2597 
L 916 2947 
L 1050 2947 
L 1050 2338 
z
" transform="scale(0.015625)"/>
       <path id="TimesNewRomanPSMT-65" d="M 681 1784 
Q 678 1147 991 784 
Q 1303 422 1725 422 
Q 2006 422 2214 576 
Q 2422 731 2563 1106 
L 2659 1044 
Q 2594 616 2278 264 
Q 1963 -88 1488 -88 
Q 972 -88 605 314 
Q 238 716 238 1394 
Q 238 2128 614 2539 
Q 991 2950 1559 2950 
Q 2041 2950 2350 2633 
Q 2659 2316 2659 1784 
L 681 1784 
z
M 681 1966 
L 2006 1966 
Q 1991 2241 1941 2353 
Q 1863 2528 1708 2628 
Q 1553 2728 1384 2728 
Q 1125 2728 920 2526 
Q 716 2325 681 1966 
z
" transform="scale(0.015625)"/>
      </defs>
      <use xlink:href="#TimesNewRomanPSMT-4e"/>
      <use xlink:href="#TimesNewRomanPSMT-61" x="72.216797"/>
      <use xlink:href="#TimesNewRomanPSMT-6d" x="116.601562"/>
      <use xlink:href="#TimesNewRomanPSMT-65" x="194.384766"/>
     </g>
    </g>
    <g id="patch_26">
     <path d="M 397.459752 77.323125 
L 421.459752 77.323125 
L 421.459752 68.923125 
L 397.459752 68.923125 
z
" style="fill: #d62728; opacity: 0.7"/>
    </g>
    <g id="text_19">
     <!-- Email -->
     <g transform="translate(431.059752 77.323125) scale(0.12 -0.12)">
      <defs>
       <path id="TimesNewRomanPSMT-45" d="M 1338 4006 
L 1338 2331 
L 2269 2331 
Q 2631 2331 2753 2441 
Q 2916 2584 2934 2947 
L 3050 2947 
L 3050 1472 
L 2934 1472 
Q 2891 1781 2847 1869 
Q 2791 1978 2662 2040 
Q 2534 2103 2269 2103 
L 1338 2103 
L 1338 706 
Q 1338 425 1363 364 
Q 1388 303 1450 267 
Q 1513 231 1688 231 
L 2406 231 
Q 2766 231 2928 281 
Q 3091 331 3241 478 
Q 3434 672 3638 1063 
L 3763 1063 
L 3397 0 
L 131 0 
L 131 116 
L 281 116 
Q 431 116 566 188 
Q 666 238 702 338 
Q 738 438 738 747 
L 738 3500 
Q 738 3903 656 3997 
Q 544 4122 281 4122 
L 131 4122 
L 131 4238 
L 3397 4238 
L 3444 3309 
L 3322 3309 
Q 3256 3644 3176 3769 
Q 3097 3894 2941 3959 
Q 2816 4006 2500 4006 
L 1338 4006 
z
" transform="scale(0.015625)"/>
       <path id="TimesNewRomanPSMT-6c" d="M 1184 4444 
L 1184 647 
Q 1184 378 1223 290 
Q 1263 203 1344 158 
Q 1425 113 1647 113 
L 1647 0 
L 244 0 
L 244 113 
Q 441 113 512 153 
Q 584 194 625 287 
Q 666 381 666 647 
L 666 3247 
Q 666 3731 644 3842 
Q 622 3953 573 3993 
Q 525 4034 450 4034 
Q 369 4034 244 3984 
L 191 4094 
L 1044 4444 
L 1184 4444 
z
" transform="scale(0.015625)"/>
      </defs>
      <use xlink:href="#TimesNewRomanPSMT-45"/>
      <use xlink:href="#TimesNewRomanPSMT-6d" x="61.083984"/>
      <use xlink:href="#TimesNewRomanPSMT-61" x="138.867188"/>
      <use xlink:href="#TimesNewRomanPSMT-69" x="183.251953"/>
      <use xlink:href="#TimesNewRomanPSMT-6c" x="211.035156"/>
     </g>
    </g>
    <g id="patch_27">
     <path d="M 397.459752 94.29 
L 421.459752 94.29 
L 421.459752 85.89 
L 397.459752 85.89 
z
" style="fill: #9467bd; opacity: 0.7"/>
    </g>
    <g id="text_20">
     <!-- Phone -->
     <g transform="translate(431.059752 94.29) scale(0.12 -0.12)">
      <defs>
       <path id="TimesNewRomanPSMT-68" d="M 1041 4444 
L 1041 2350 
Q 1388 2731 1591 2839 
Q 1794 2947 1997 2947 
Q 2241 2947 2416 2812 
Q 2591 2678 2675 2391 
Q 2734 2191 2734 1659 
L 2734 647 
Q 2734 375 2778 275 
Q 2809 200 2884 156 
Q 2959 113 3159 113 
L 3159 0 
L 1753 0 
L 1753 113 
L 1819 113 
Q 2019 113 2097 173 
Q 2175 234 2206 353 
Q 2216 403 2216 647 
L 2216 1659 
Q 2216 2128 2167 2275 
Q 2119 2422 2012 2495 
Q 1906 2569 1756 2569 
Q 1603 2569 1437 2487 
Q 1272 2406 1041 2159 
L 1041 647 
Q 1041 353 1073 281 
Q 1106 209 1195 161 
Q 1284 113 1503 113 
L 1503 0 
L 84 0 
L 84 113 
Q 275 113 384 172 
Q 447 203 484 290 
Q 522 378 522 647 
L 522 3238 
Q 522 3728 498 3840 
Q 475 3953 426 3993 
Q 378 4034 297 4034 
Q 231 4034 84 3984 
L 41 4094 
L 897 4444 
L 1041 4444 
z
" transform="scale(0.015625)"/>
      </defs>
      <use xlink:href="#TimesNewRomanPSMT-50"/>
      <use xlink:href="#TimesNewRomanPSMT-68" x="55.615234"/>
      <use xlink:href="#TimesNewRomanPSMT-6f" x="105.615234"/>
      <use xlink:href="#TimesNewRomanPSMT-6e" x="155.615234"/>
      <use xlink:href="#TimesNewRomanPSMT-65" x="205.615234"/>
     </g>
    </g>
   </g>
  </g>
 </g>
 <defs>
  <clipPath id="p453d9e2911">
   <rect x="32.2" y="7.2" width="299.103843" height="270.52"/>
  </clipPath>
  <clipPath id="pfb49f0ae05">
   <rect x="386.659752" y="7.2" width="299.103843" height="270.52"/>
  </clipPath>
 </defs>
</svg>
